<?xml version="1.0" encoding="UTF-8"?>
<svg xmlns="http://www.w3.org/2000/svg" xmlns:xlink="http://www.w3.org/1999/xlink" width="18pt" height="18pt" viewBox="0 0 18 18" version="1.1">
<g id="surface1">
<path style=" stroke:none;fill-rule:nonzero;fill:rgb(12.380981%,50.566101%,77.215576%);fill-opacity:1;" d="M 15.339844 15.339844 L 12.636719 15.339844 L 12.636719 10.644531 C 12.636719 9.261719 12.046875 8.832031 11.285156 8.832031 C 10.484375 8.832031 9.695312 9.4375 9.695312 10.679688 L 9.695312 15.339844 L 6.992188 15.339844 L 6.992188 6.746094 L 9.59375 6.746094 L 9.59375 7.933594 L 9.628906 7.933594 C 9.890625 7.40625 10.804688 6.503906 12.199219 6.503906 C 13.710938 6.503906 15.339844 7.398438 15.339844 10.023438 Z M 4.011719 5.546875 C 3.148438 5.546875 2.453125 4.890625 2.453125 3.992188 C 2.453125 3.097656 3.148438 2.4375 4.011719 2.4375 C 4.875 2.4375 5.570312 3.097656 5.570312 3.992188 C 5.570312 4.890625 4.875 5.546875 4.011719 5.546875 Z M 5.363281 15.335938 L 2.660156 15.335938 L 2.660156 6.738281 L 5.363281 6.738281 Z M 16.671875 0 L 1.328125 0 C 0.59375 0 0 0.59375 0 1.328125 L 0 16.671875 C 0 17.40625 0.59375 18 1.328125 18 L 16.671875 18 C 17.40625 18 18 17.40625 18 16.671875 L 18 1.328125 C 18 0.59375 17.40625 0 16.671875 0 "/>
</g>
</svg>
